<svg xmlns="http://www.w3.org/2000/svg" style="display: none;">

  <symbol id="icon-university" viewBox="0 0 512 512">
    <path d="m256 64l-224 112 32 21 0 203 32 16 0-198 160 102 132-85 92-60z m134 192l-134 88-135-88-9 82c16 12 112 78 144 110 32-32 128-98 144-110z"/>
  </symbol>

  <symbol id="icon-folder-add" viewBox="0 0 512 512">
    <path d="m299 64l0-21c0-24-19-43-43-43l-85 0c-24 0-43 19-43 43l0 21l-85 0l0 64l-22 0l0 149l43 0l0-106l384 0l0 256l-235 0l0 42l278 0l0-405z m149 64l-363 0l0-21l86 0l0-64l85 0l0 64l192 0z m-320 171l-64 0l0 64l-64 0l0 64l64 0l0 64l64 0l0-64l64 0l0-64l-64 0z"/>
  </symbol>

  <symbol id="icon-folder-check" viewBox="0 0 512 512">
    <path d="m299 85l0-21c0-24-19-43-43-43l-85 0c-24 0-43 19-43 43l0 21l-85 0l0 64l-22 0l0 150l43 0l0-107l384 0l0 256l-235 0l0 43l278 0l0-406z m149 64l-363 0l0-21l86 0l0-64l85 0l0 64l192 0z m-363 267l-15-40l-32 39l52 70l86-139l-32-19z"/>
  </symbol>

  <symbol id="icon-folder-settings" viewBox="0 0 512 512">
    <path d="m299 85l0-21c0-24-19-43-43-43l-85 0c-24 0-43 19-43 43l0 21l-85 0l0 64l-22 0l0 150l43 0l0-107l384 0l0 256l-235 0l0 43l278 0l0-406z m149 64l-363 0l0-21l86 0l0-64l85 0l0 64l192 0z m-289 267c1-3 1-7 1-11c0-4-1-7-1-11l33-19l-19-29l-31 19c-5-3-14-6-14-8l0-37l-43 0l0 37c0 2-9 5-13 8l-31-19l-19 29l33 19c-1 4-2 7-2 11c0 4 1 8 1 11l-33 20l19 29l32-20c4 4 13 7 13 8l0 38l43 0l0-38c0-1 9-4 14-8l32 20l18-29z m-52 23c-20 0-36-15-36-34c0-18 16-34 36-34c19 0 35 16 35 34c0 19-16 34-35 34z"/>
  </symbol>

  <symbol id="icon-align-center" viewBox="0 0 512 512">
    <path d="m64 43l0 448l363 0l0-448z m320 405l-277 0l0-363l277 0z m-85-299l-128 0l0 43l128 0z m42 64l-192 0l0 22l192 0z m0 43l-192 0l0 21l192 0z m0 43l-192 0l0 21l192 0z m-128 64l64 0l0-22l-64 0z"/>
  </symbol>

  <symbol id="icon-align-justify" viewBox="0 0 512 512">
    <path d="m64 43l0 448l363 0l0-448z m320 405l-277 0l0-363l277 0z m-43-299l-192 0l0 43l192 0z m0 64l-192 0l0 22l192 0z m0 43l-192 0l0 21l192 0z m0 43l-192 0l0 21l192 0z m0 42l-192 0l0 22l192 0z"/>
  </symbol>

  <symbol id="icon-align-left" viewBox="0 0 512 512">
    <path d="m64 43l0 448l363 0l0-448z m320 405l-277 0l0-363l277 0z m-107-299l-128 0l0 43l128 0z m64 64l-192 0l0 22l192 0z m0 43l-192 0l0 21l192 0z m0 43l-192 0l0 21l192 0z m-128 42l-64 0l0 22l64 0z"/>
  </symbol>

  <symbol id="icon-align-right" viewBox="0 0 512 512">
    <path d="m64 43l0 448l363 0l0-448z m320 405l-277 0l0-363l277 0z m-43-299l-128 0l0 43l128 0z m0 64l-192 0l0 22l192 0z m0 43l-192 0l0 21l192 0z m0 43l-192 0l0 21l192 0z m-64 64l64 0l0-22l-64 0z"/>
  </symbol>

  <symbol id="icon-archive" viewBox="0 0 512 512">
    <path d="m448 235l0-150l-64 0l0-64l-341 0l0 214l-22 0l0 42l22 0l0 235l426 0l0-235l22 0l0-42z m-43-107l0 107l-256 0l0-107z m-320-64l256 0l0 21l-234 0l0 150l-22 0z m342 405l-342 0l0-192l342 0z m-43-170l-256 0l0 149l256 0z m-21 128l-214 0l0-107l214 0z m-22-86l-170 0l0 22l170 0z m-64 43l-106 0l0 21l106 0z"/>
  </symbol>

  <symbol id="icon-arrow-down" viewBox="0 0 512 512">
    <path d="m213 128l0 192l-96 0l139 139l139-139l-96 0l0-193c0-23-19-42-43-42c-24 0-43 20-43 43z"/>
  </symbol>

  <symbol id="icon-arrow-left" viewBox="0 0 512 512">
    <path d="m384 213l-192 0l0-96l-139 139l139 139l0-96l193 0c23 0 42-19 42-43c0-24-20-43-43-43z"/>
  </symbol>

  <symbol id="icon-arrow-right" viewBox="0 0 512 512">
    <path d="m107 299l192 0l0 96l138-139l-138-139l0 96l-193 0c-23 0-42 19-42 43c0 24 20 43 43 43z"/>
  </symbol>

  <symbol id="icon-arrow-up" viewBox="0 0 512 512">
    <path d="m299 405l0-192l96 0l-139-138l-139 138l96 0l0 193c0 23 19 42 43 42c24 0 43-20 43-43z"/>
  </symbol>

  <symbol id="icon-barbell" viewBox="0 0 512 512">
    <path d="m464 192c-11 0-16 19-16 43l0 42c0 24 5 43 16 43c12 0 17-19 17-43l31 0l0-42l-31 0c0-24-5-43-17-43z m-80-64c-21 0-21 19-21 43l0 64l-214 0l0-64c0-24 0-43-21-43c-23 0-43 19-43 43l0 170c0 24 20 43 43 43c21 0 21-19 21-43l0-64l214 0l0 64c0 24 0 43 21 43c23 0 43-19 43-43l0-170c0-24-20-43-43-43z m-336 64c11 0 16 19 16 43l0 42c0 24-5 43-16 43c-12 0-17-19-17-43l-31 0l0-42l31 0c0-24 5-43 17-43z"/>
  </symbol>

  <symbol id="icon-book-open" viewBox="0 0 512 512">
    <path d="m212 200c-36-28-80-58-149-63z m0 64c-36-28-80-58-149-63z m-64 23c-24-11-51-20-85-22z m130-87l150-63c-69 5-113 35-150 63z m0 64l150-63c-69 5-113 35-150 63z m150 1c-34 2-62 11-85 22z m42-257c-93 0-178 43-222 78l-6 0c-43-35-128-78-222-78l-20 0l0 405l20 0c69 0 146 27 180 52c10 8 19 16 27 24l17 16l2 0l17-16c9-8 18-16 28-24c34-25 110-52 179-52l21 0l0-405z m-235 430c0-2-6-5-8-7c-36-27-120-55-184-60l0-320c85 7 155 48 185 78l6 7l1 0z m213-67c-64 5-148 33-184 60c-3 2-8 5-8 7l0-302l1 0l6-7c30-30 100-71 185-78z"/>
  </symbol>

  <symbol id="icon-calendar" viewBox="0 0 512 512">
    <path d="m427 85l0-85l-128 0l0 85l-86 0l0-85l-128 0l0 85l-85 0l0 406l512 0l0-406z m-86-42l43 0l0 85l-43 0z m-213 0l43 0l0 85l-43 0z m341 405l-426 0l0-235l426 0z m0-256l-426 0l0-64l42 0l0 43l128 0l0-43l86 0l0 43l128 0l0-43l42 0z m-362 85l42 0l0 43l-42 0z m64 0l42 0l0 43l-42 0z m64 0l42 0l0 43l-42 0z m64 0l42 0l0 43l-42 0z m64 0l42 0l0 43l-42 0z m-256 64l42 0l0 43l-42 0z m64 0l42 0l0 43l-42 0z m64 0l42 0l0 43l-42 0z"/>
  </symbol>

  <symbol id="icon-bubble" viewBox="0 0 512 512">
    <path d="m427 21l-363 0c-35 0-64 29-64 64l0 256c0 36 43 43 64 43l0 128l192-128l171 0c35 0 64-29 64-64l0-235c0-35-29-64-64-64z m21 299c0 12-10 21-21 21l-192 0l-128 107l0-107l-43 0c-12 0-21-9-21-21l0-235c0-11 9-21 21-21l363 0c11 0 21 10 21 21z"/>
  </symbol>

  <symbol id="icon-bubble-1" viewBox="0 0 512 512">
    <path d="m139 192c17 0 32 14 32 32c0 18-15 32-32 32c-18 0-32-14-32-32c0-18 14-32 32-32z m288-171l-363 0c-35 0-64 29-64 64l0 256c0 36 43 43 64 43l0 128l192-128l171 0c35 0 64-29 64-64l0-235c0-35-29-64-64-64z m21 299c0 12-10 21-21 21l-192 0l-128 107l0-107l-43 0c-12 0-21-9-21-21l0-235c0-11 9-21 21-21l363 0c11 0 21 10 21 21z"/>
  </symbol>

  <symbol id="icon-bubble-2" viewBox="0 0 512 512">
    <path d="m139 192c17 0 32 14 32 32c0 18-15 32-32 32c-18 0-32-14-32-32c0-18 14-32 32-32z m106 0c18 0 32 14 32 32c0 18-14 32-32 32c-17 0-32-14-32-32c0-18 15-32 32-32z m182-171l-363 0c-35 0-64 29-64 64l0 256c0 36 43 43 64 43l0 128l192-128l171 0c35 0 64-29 64-64l0-235c0-35-29-64-64-64z m21 299c0 12-10 21-21 21l-192 0l-128 107l0-107l-43 0c-12 0-21-9-21-21l0-235c0-11 9-21 21-21l363 0c11 0 21 10 21 21z"/>
  </symbol>

  <symbol id="icon-bubble-3" viewBox="0 0 512 512">
    <path d="m139 192c17 0 32 14 32 32c0 18-15 32-32 32c-18 0-32-14-32-32c0-18 14-32 32-32z m106 0c18 0 32 14 32 32c0 18-14 32-32 32c-17 0-32-14-32-32c0-18 15-32 32-32z m107 0c18 0 32 14 32 32c0 18-14 32-32 32c-18 0-32-14-32-32c0-18 14-32 32-32z m75-171l-363 0c-35 0-64 29-64 64l0 256c0 36 43 43 64 43l0 128l192-128l171 0c35 0 64-29 64-64l0-235c0-35-29-64-64-64z m21 299c0 12-10 21-21 21l-192 0l-128 107l0-107l-43 0c-12 0-21-9-21-21l0-235c0-11 9-21 21-21l363 0c11 0 21 10 21 21z"/>
  </symbol>

  <symbol id="icon-comment" viewBox="0 0 512 512">
    <path d="m427 21l-363 0c-35 0-64 29-64 64l0 256c0 36 43 43 64 43l0 128l192-128l171 0c35 0 64-29 64-64l0-235c0-35-29-64-64-64z m21 299c0 12-10 21-21 21l-192 0l-128 107l0-107l-43 0c-12 0-21-9-21-21l0-235c0-11 9-21 21-21l363 0c11 0 21 10 21 21z m-363-192l256 0l0 43l-256 0z m0 64l320 0l0 21l-320 0z m0 43l320 0l0 21l-320 0z m0 42l171 0l0 22l-171 0z"/>
  </symbol>

  <symbol id="icon-checkbox-checked" viewBox="0 0 512 512">
    <path d="m85 128l206 0l25-42l-273-1l0 214l42-43z m0 299c0-2 1-52 1-64c-23-34-43-64-43-64l0 170l122 1c0 0-12-19-29-43c-16 0-42 0-51 0z m320 0l-126 0l-26 43l195-1l0-298l-43 42z m-21-395l-176 299l-49-85l-74 42l122 213l251-426z"/>
  </symbol>

  <symbol id="icon-cloud" viewBox="0 0 512 512">
    <path d="m408 448c61 0 101-67 101-136c0-59-48-111-107-119l-10-26c-23-63-81-103-147-103c-87 0-158 72-158 160c0 4 0 8 0 11c-47 6-84 46-84 96c0 45 35 110 85 117z m-110-175c19-28 57-30 74-39l0 1l15 0c42 0 80 32 80 72c0 39-26 98-68 98l-309 0c-23 0-45-50-45-79c0-33 29-57 64-50l33 8l-8-32c-2-9-5-18-5-28c0-65 52-117 116-117c49 0 90 28 107 75c-43 25-56 86-56 86"/>
  </symbol>

  <symbol id="icon-clock" viewBox="0 0 512 512">
    <path d="m256 0c-141 0-256 115-256 256c0 141 115 256 256 256c141 0 256-115 256-256c0-141-115-256-256-256z m0 469c-118 0-213-95-213-213c0-118 95-213 213-213c118 0 213 95 213 213c0 118-95 213-213 213z m95-360c-11-5-23-1-29 9l-72 145l-43-43c-8-9-22-9-30 0c-8 8-8 21 0 30l64 64c4 4 9 6 15 6c1 0 2 0 3 0c7-1 13-6 16-12l85-170c6-11 1-24-9-29z m-116 296l42 0l0 22l-42 0z m0-341l42 0l0 21l-42 0z m-171 171l43 0l0 21l-43 0z m341 0l43 0l0 21l-43 0z"/>
  </symbol>

  <symbol id="icon-file" viewBox="0 0 512 512">
    <path d="m149 149l128 0l0 43l-128 0z m0 64l192 0l0 22l-192 0z m0 43l192 0l0 21l-192 0z m0 43l192 0l0 21l-192 0z m0 42l64 0l0 22l-64 0z m202-298l-287 0l0 448l363 0l0-373z m33 93l0 13l-64 0l0-64l13 0z m-277 312l0-363l192 0l0 86l85 0l0 277z"/>
  </symbol>

  <symbol id="icon-file-add" viewBox="0 0 512 512">
    <path d="m171 149l0 43l128 0l0-43z m0 86l192 0l0-22l-192 0z m192 21l-171 0l0 21l171 0z m0 64l0-21l-150 0l0 21z m-192-21l-64 0l0 64l-64 0l0 64l64 0l0 64l64 0l0-64l64 0l0-64l-64 0z m-86-256l0 213l43 0l0-171l277 0l0 363l-141 0l-22 43l206 0l0-448z"/>
  </symbol>

  <symbol id="icon-file-broken" viewBox="0 0 512 512">
    <path d="m64 43l0 448l363 0l0-448z m320 405l-277 0l0-363l277 0z m-191-109l52-53l53 53l30-30l-52-53l52-53l-30-30l-53 53l-52-53l-31 30l53 53l-53 53z"/>
  </symbol>

  <symbol id="icon-file-settings" viewBox="0 0 512 512">
    <path d="m149 149l0 43l128 0l0-43z m0 86l192 0l0-22l-192 0z m192 21l-64 0l0 21l64 0z m-64 64l64 0l0-21l-64 0z m-213-277l0 213l43 0l0-171l277 0l0 363l-107 0l0 43l150 0l0-448z m143 330c0-5-1-10-2-14l30-20l-19-33l-30 20c-6-5-12-8-19-11l0-38l-36 0l0 38c-7 3-13 6-18 11l-30-20l-19 33l30 20c-2 4-2 9-2 14c0 5 0 10 2 15l-30 20l19 33l30-21c5 5 11 9 18 11l0 38l36 0l0-37c7-3 13-7 19-11l30 20l19-33l-30-20c1-5 2-10 2-15z m-58 39c-19 0-35-17-35-39c0-21 16-38 35-38c20 0 36 17 36 38c0 22-16 39-36 39z"/>
  </symbol>

  <symbol id="icon-heart" viewBox="0 0 512 512">
    <path d="m256 419l-1 1l-170-217c-7-10-21-22-21-49c0-47 38-85 85-85c47 0 107 38 107 85l0-70c-23-35-62-58-107-58c-70 0-128 58-128 128c0 44 22 64 27 79l208 252z m0 0l1 1l170-217c7-10 21-22 21-49c0-47-38-85-85-85c-47 0-107 38-107 85l0-70c23-35 62-58 107-58c70 0 128 58 128 128c0 44-22 64-27 79l-208 252z"/>
  </symbol>

  <symbol id="icon-id-card" viewBox="0 0 512 512">
    <path d="m235 171l-150 0l0 170l150 0z m-22 138c0-17-24-32-53-32c-29 0-53 15-53 32l0-117l106 0z m-85-64c0 18 14 32 32 32c18 0 32-14 32-32c0-17-14-32-32-32c-18 0-32 15-32 32z m340-160l-427 0c-23 0-41 18-41 41l0 256c0 24 18 45 41 45l427 0c23 0 44-21 44-45l0-256c0-23-21-41-44-41z m1 299l-426 0l0-256l426 0z m-192-213l150 0l0 42l-150 0z m0 64l150 0l0 21l-150 0z m0 42l150 0l0 22l-150 0z m0 43l64 0l0 21l-64 0z m86 0l21 0l0 21l-21 0z"/>
  </symbol>

  <symbol id="icon-lock" viewBox="0 0 512 512">
    <path d="m405 192l0-64c0-43-42-107-149-107c-107 0-149 64-149 107l0 64l-43 0l0 235c0 35 29 64 64 64l256 0c35 0 64-29 64-64l0-235z m-256-85c0 0 22-43 107-43c85 0 107 43 107 43l0 85l-214 0z m256 320c0 11-9 21-21 21l-256 0c-12 0-21-10-21-21l0-192l298 0z m-170-70l0 48l42 0l0-48c13-8 22-21 22-37c0-24-19-43-43-43c-24 0-43 19-43 43c0 16 9 29 22 37z"/>
  </symbol>

  <symbol id="icon-picture" viewBox="0 0 512 512">
    <path d="m0 64l0 384l512 0l0-384z m469 341l-426 0l0-298l426 0z m-160-140c24 0 43-19 43-42c0-24-19-43-43-43c-23 0-42 19-42 43c0 23 19 42 42 42z m-21-64l43 0l0 43l-43 0z m160-73l-384 0l0 256l384 0z m-363 149l129 36l-129 23z m342 86l-342 0l0-5l342-60z m0-87l-171 32l-171-53l0-106l342 0z"/>
  </symbol>

  <symbol id="icon-pin" viewBox="0 0 512 512">
    <path d="m256 0c-107 0-194 87-194 194c0 108 152 318 194 318c31 0 194-210 194-318c0-107-87-194-194-194z m-1 290c-54 0-99-44-99-99c0-54 45-99 99-99c55 0 99 45 99 99c0 55-44 99-99 99z"/>
  </symbol>

  <symbol id="icon-user" viewBox="0 0 512 512">
    <path d="m256 320c0 0-171 0-235 149c0 0 107 43 235 43c128 0 235-43 235-43c-64-149-235-149-235-149z m0-21c64 0 107-64 107-171c0-107-107-107-107-107c0 0-107 0-107 107c0 107 43 171 107 171z"/>
  </symbol>

  <symbol id="icon-user-outline" viewBox="0 0 512 512">
    <path d="m505 426c-36-85-105-125-158-143c24-33 37-81 37-140c1-99-81-126-124-127c-44 0-126 25-127 125c0 59 12 107 35 140c-54 18-123 56-161 141l-9 20l21 8c4 2 109 45 237 46c127 1 233-40 237-41l21-8z m-246-367c9 0 83 4 83 84c-1 64-18 112-48 133l-37 26l-36-27c-29-21-46-70-45-134c0-80 75-82 83-82z m-3 394c-86-1-163-22-199-34c39-69 105-95 156-106l44-9l45 10c50 11 116 39 154 108c-36 12-113 32-200 31z"/>
  </symbol>

  <symbol id="icon-users" viewBox="0 0 512 512">
    <path d="m320 306c0 0-132 0-181 116c0 0 82 33 181 33c99 0 181-33 181-33c-49-116-181-116-181-116z m0-16c49 0 82-49 82-132c0-82-82-82-82-82c0 0-82 0-82 82c0 82 33 132 82 132z m-160-56c16 0 30-7 41-19c-4-17-6-36-6-57c0-32 12-51 27-63c-16-38-62-38-62-38c0 0-68 0-68 68c0 68 27 109 68 109z m64 53l-2-27c-34-13-62-13-62-13c0 0-109 0-149 95c0 0 52 21 120 26c59-62 93-81 93-81z"/>
  </symbol>

  <symbol id="icon-users-outline" viewBox="0 0 512 512">
    <path d="m503 426c-31-72-103-113-155-131c32-26 51-76 51-141c0-86-72-109-110-109c-7 0-14 1-21 2c-20-18-47-26-69-26c-40 0-99 26-99 98c0 57 17 101 45 125c-44 11-105 40-136 112l-9 20l21 8c1 1 27 10 65 19c-5 7-9 15-12 23l-9 20l21 8c3 2 94 37 203 37c109 0 199-35 202-37l21-8z m-147-272c0 74-26 119-67 119c-42 0-68-45-68-119c0-62 56-66 67-66c12 0 68 4 68 66z m-157-90c2 0 11 0 20 4c-22 16-40 43-40 86c0 24 2 45 7 64c-32-10-43-56-43-99c0-52 47-55 56-55z m0 214c0 0 6 0 16 2c9 11 20 20 32 26c-33 7-81 23-120 61c-28-4-52-10-68-15c46-72 136-74 140-74z m90 170c-70 0-141-16-173-26c5-15 21-34 27-41c60-57 145-59 145-59c1 0 16 1 38 5c38 10 97 45 127 95c-32 10-94 26-164 26z"/>
  </symbol>

  <symbol id="icon-printer" viewBox="0 0 512 512">
    <path d="m424 128l-40 0 0-64-256 0 0 64-40 0c-28 0-56 17-56 55l0 123c0 38 28 62 56 62 0 0 31 0 40 0l0 112 256 0 0-112c10 0 40 0 40 0 28 0 56-23 56-54l0-131c0-36-28-55-56-55z m-56 336l-224 0 0-176 224 0z m0-336l-224 0 0-48 224 0z m48 64l-17 0 0-16 17 0z m-256 128l192 0 0 16-192 0z m0 48l192 0 0 16-192 0z m0 48l192 0 0 16-192 0z"/>
  </symbol>

  <symbol id="icon-android-train" viewBox="0 0 512 512">
    <path d="m80 347c0 41 33 74 75 74l-27 27 0 16 256 0 0-16-27-27c42 0 75-33 75-74l0-214c0-74-82-85-176-85-94 0-176 11-176 85z m176 29c-22 0-40-18-40-40 0-22 18-40 40-40 22 0 40 18 40 40 0 22-18 40-40 40z m128-152l-256 0 0-96 256 0z"/>
  </symbol>

  <symbol id="icon-social-euro" viewBox="0 0 512 512">
    <path d="m234 272l0-48 131 0 7-48-138 0 0-2c0-36 15-58 79-58 27 0 56 3 93 9l10-65c-38-9-71-12-106-12-115 0-164 41-164 117l0 11-50 0 0 48 50 0 0 48-50 0 0 48 50 0 0 27c0 76 49 117 164 117 35 0 68-3 106-12l-10-65c-37 6-67 9-93 9-64 0-79-19-79-63l0-13 117 0 7-48z"/>
  </symbol>

  <symbol id="icon-heart-1" viewBox="0 0 512 512">
    <path d="m430 96c-40-42-106-42-146 0l-28 28-27-28c-41-43-106-43-147 0-45 47-45 124 0 171l174 181 174-181c45-47 45-124 0-171z"/>
  </symbol>

  <symbol id="icon-laptop" viewBox="0 0 512 512">
    <path d="m64 128l384 0l0 213l43 0l0-256l-470 0l0 256l43 0z m277 235c-4 8-24 15-42 19l0 2l-86 0l0-2c-18-4-38-11-42-19l-171 0l0 21c0 23 64 43 64 43l384 0c0 0 64-20 64-43l0-21z m86 42l-22 0l0-21l22 0z"/>
  </symbol>

  <symbol id="icon-files" viewBox="0 0 512 512">
    <path d="m107 0l0 64l-64 0l0 448l362 0l0-64l64 0l0-448z m256 469l-278 0l0-362l22 0l0 341l256 0z m64-64l-278 0l0-362l278 0z m-107-298l-128 0l0 42l128 0z m64 64l-192 0l0 21l192 0z m0 42l-192 0l0 22l192 0z m0 43l-192 0l0 21l192 0z m-128 43l-64 0l0 21l64 0z"/>
  </symbol>

  <symbol id="icon-email" viewBox="0 0 512 512">
    <path d="m277 128l-128 0l0 43l128 0z m64 64l-192 0l0 21l192 0z m0 43l-192 0l0 21l192 0z m86 21l0-235l-363 0l0 236l-43-22l0 277l448 0l0-277z m-320-192l277 0l0 211l-43 23l0-21l-192 0l0 22l192 0l-96 51l-138-71z m-43 405l0-167l313 167z m363-22l-136-73l136-72z"/>
  </symbol>

  <symbol id="icon-folder" viewBox="0 0 512 512">
    <path d="m299 85l0-21c0-24-19-43-43-43l-85 0c-24 0-43 19-43 43l0 21l-85 0l0 64l-22 0l0 342l470 0l0-406z m149 363l-384 0l0-256l384 0z m0-299l-363 0l0-21l86 0l0-64l85 0l0 64l192 0z"/>
  </symbol>

  <symbol id="icon-settings" viewBox="0 0 512 512">
    <path d="m213 181c44 0 79 33 85 75l75 0c-1-10-3-20-5-29l61-35l-43-74l-61 35c-19-19-42-33-69-40l0-70l-85 0l0 70c-27 7-51 21-70 40l-60-35l-43 74l61 35c-4 12-6 26-6 40c0 13 2 27 6 40l-61 35l43 74l60-35c19 18 43 32 70 40l0 70l85 0l0-151c-13 7-27 12-43 12c-47 0-85-38-85-85c0-47 38-86 85-86z m278 203c0-8-2-15-4-23l40-23l-22-36l-39 22c-11-11-24-18-39-22l0-46l-43 0l0 46c-15 4-29 11-40 22l-39-22l-21 36l39 23c-2 8-3 15-3 23c0 8 1 15 3 23l-39 23l21 36l39-22c11 11 25 18 40 22l0 46l43 0l0-46c15-4 28-11 39-22l40 22l21-36l-40-23c2-8 4-15 4-23z m-86 43c-23 0-42-19-42-43c0-24 19-43 42-43c24 0 43 19 43 43c0 24-19 43-43 43z"/>
  </symbol>

  <symbol id="icon-star" viewBox="0 0 512 512">
    <path d="m392 502c-8 0-17-2-25-7l-83-44c-14-7-42-7-56 0l-83 44c-20 11-41 8-53-6c-5-6-11-19-8-39l16-92c3-16-6-41-17-53l-67-65c-14-14-20-30-15-45c5-14 19-24 38-27l93-14c16-2 37-18 45-32l41-84c9-18 23-28 38-28c15 0 29 10 38 28l41 84c8 14 29 30 45 32l93 14c19 3 33 13 38 27c5 15-1 31-15 45l-67 65c-11 12-20 37-17 53l16 92c3 20-3 33-8 39c-7 8-17 13-28 13z m-136-99c18 0 35 4 48 11l82 43l-16-92c-5-30 8-69 30-90l66-65l-92-13c-30-5-63-29-77-56l-41-84l-41 84c-14 27-47 51-77 56l-92 13l66 65c22 21 35 60 30 90l-16 92l82-43c13-7 30-11 48-11z"/>
  </symbol>

  <symbol id="icon-microwave" viewBox="0 0 512 512">
    <path d="m448 64l-384 0c-35 0-64 29-64 64l0 235c0 35 29 64 64 64l21 0l22 42l21 0l21-42l214 0l21 42l21 0l22-42l21 0c35 0 64-29 64-64l0-235c0-35-29-64-64-64z m21 299c0 11-9 21-21 21l-384 0c-12 0-21-10-21-21l0-235c0-12 9-21 21-21l384 0c12 0 21 9 21 21z m-405 0l320 0l0-235l-320 0z m21-214l278 0l0 192l-278 0z m320 0l22 0l0 22l-22 0z m22 22l21 0l0 21l-21 0z m-22 21l22 0l0 21l-22 0z m22 21l21 0l0 22l-21 0z m-22 64l43 0l0 22l-43 0z m0 43l43 0l0 21l-43 0z"/>
  </symbol>

  <symbol id="icon-caret-down" viewBox="0 0 512 512">
    <path d="m402 201c0 5-2 9-5 13l-128 128c-4 4-8 5-13 5-5 0-9-1-13-5l-128-128c-3-4-5-8-5-13 0-5 2-9 5-13 4-3 8-5 13-5l256 0c5 0 9 2 13 5 3 4 5 8 5 13z"/>
  </symbol>

  <symbol id="icon-chevron-circle-down" viewBox="0 0 512 512">
    <path d="m269 371l130-130c3-3 5-7 5-12 0-5-2-10-5-13l-30-29c-3-4-7-6-12-6-5 0-10 2-13 6l-88 87-88-87c-3-4-8-6-13-6-5 0-9 2-12 6l-30 29c-3 3-5 8-5 13 0 5 2 9 5 12l130 130c4 4 8 6 13 6 5 0 9-2 13-6z m206-115c0 40-9 77-29 110-20 34-46 60-80 80-33 20-70 29-110 29-40 0-77-9-110-29-34-20-60-46-80-80-20-33-29-70-29-110 0-40 9-77 29-110 20-34 46-60 80-80 33-20 70-29 110-29 40 0 77 9 110 29 34 20 60 46 80 80 20 33 29 70 29 110z"/>
  </symbol>

  <symbol id="icon-ambulance" viewBox="0 0 512 512">
    <path d="m165 402c0-10-4-18-11-26-7-7-16-10-26-10-10 0-19 3-26 10-7 8-11 16-11 26 0 10 4 19 11 26 7 7 16 11 26 11 10 0 19-4 26-11 7-7 11-16 11-26z m-110-146l110 0 0-73-46 0c-2 0-4 1-6 2l-56 56c-1 2-2 5-2 6z m366 146c0-10-4-18-11-26-7-7-16-10-26-10-10 0-19 3-26 10-7 8-11 16-11 26 0 10 4 19 11 26 7 7 16 11 26 11 10 0 19-4 26-11 7-7 11-16 11-26z m36-192l0-55c0-2-1-4-2-6-2-2-4-3-7-3l-64 0 0-64c0-2-1-5-3-6-1-2-3-3-6-3l-55 0c-3 0-5 1-7 3-1 1-2 4-2 6l0 64-64 0c-3 0-5 1-7 3-1 2-2 4-2 6l0 55c0 3 1 5 2 7 2 2 4 2 7 2l64 0 0 64c0 3 1 5 2 7 2 2 4 3 7 3l55 0c3 0 5-1 6-3 2-2 3-4 3-7l0-64 64 0c3 0 5 0 7-2 1-2 2-4 2-7z m73-155l0 329c0 5-2 9-5 13-4 3-8 5-13 5l-55 0c0 20-7 38-21 52-15 14-32 21-52 21-20 0-37-7-52-21-14-14-21-32-21-52l-110 0c0 20-7 38-21 52-15 14-32 21-52 21-20 0-37-7-52-21-14-14-21-32-21-52l-37 0c-5 0-9-2-13-5-3-4-5-8-5-13 0-5 2-9 5-13 4-3 8-5 13-5l0-119c0-5 2-11 4-17 2-6 6-11 9-14l57-57c3-3 8-7 14-9 6-2 12-4 17-4l46 0 0-91c0-5 1-9 5-13 4-4 8-5 13-5l329 0c5 0 9 1 13 5 3 4 5 8 5 13z"/>
  </symbol>

  <symbol id="icon-anchor" viewBox="0 0 512 512">
    <path d="m274 73c0-5-2-9-5-13-4-3-8-5-13-5-5 0-9 2-13 5-3 4-5 8-5 13 0 5 2 9 5 13 4 4 8 5 13 5 5 0 9-1 13-5 3-4 5-8 5-13z m238 265l0 101c0 4-2 7-6 8-1 1-2 1-3 1-3 0-5-1-7-3l-26-26c-23 27-53 49-91 65-38 15-79 23-123 23-44 0-85-8-123-23-38-16-68-38-91-65l-26 26c-2 2-4 3-7 3-1 0-2 0-3-1-4-1-6-4-6-8l0-101c0-2 1-5 3-6 1-2 3-3 6-3l101 0c4 0 7 2 8 6 2 3 1 7-2 10l-28 28c12 18 31 32 54 44 23 12 49 20 77 24l0-185-54 0c-5 0-10-2-13-5-4-4-6-8-6-13l0-37c0-5 2-9 6-13 3-3 8-5 13-5l54 0 0-47c-11-6-19-15-26-26-7-11-10-24-10-37 0-20 7-37 21-52 15-14 32-21 52-21 20 0 37 7 52 21 14 15 21 32 21 52 0 13-3 26-10 37-7 11-15 20-26 26l0 47 54 0c5 0 10 2 13 5 4 4 6 8 6 13l0 37c0 5-2 9-6 13-3 3-8 5-13 5l-54 0 0 185c28-4 54-12 77-24 23-12 42-26 54-44l-28-28c-3-3-4-7-2-10 1-4 4-6 8-6l101 0c3 0 5 1 6 3 2 1 3 4 3 6z"/>
  </symbol>

  <symbol id="icon-arrow-circle-down" viewBox="0 0 512 512">
    <path d="m403 256c0-5-1-9-5-13l-26-26c-3-3-7-5-13-5-5 0-9 2-12 5l-54 54 0-143c0-5-2-9-6-13-3-3-8-5-13-5l-36 0c-5 0-10 2-13 5-4 4-6 8-6 13l0 143-54-54c-3-3-7-5-12-5-5 0-10 2-13 5l-26 26c-4 4-5 8-5 13 0 5 1 10 5 13l103 104 26 26c4 3 8 5 13 5 5 0 9-2 13-5l26-26 103-104c4-3 5-8 5-13z m72 0c0 40-9 77-29 110-20 34-46 60-80 80-33 20-70 29-110 29-40 0-77-9-110-29-34-20-60-46-80-80-20-33-29-70-29-110 0-40 9-77 29-110 20-34 46-60 80-80 33-20 70-29 110-29 40 0 77 9 110 29 34 20 60 46 80 80 20 33 29 70 29 110z"/>
  </symbol>

  <symbol id="icon-arrow-circle-left" viewBox="0 0 512 512">
    <path d="m402 274l0-36c0-5-2-10-5-13-4-4-8-6-13-6l-143 0 54-54c3-3 5-7 5-12 0-5-2-10-5-13l-26-26c-4-4-8-5-13-5-5 0-10 1-13 5l-104 103-26 26c-3 4-5 8-5 13 0 5 2 9 5 13l26 26 104 103c3 4 8 5 13 5 5 0 9-1 13-5l26-26c3-3 5-7 5-13 0-5-2-9-5-12l-54-54 143 0c5 0 9-2 13-6 3-3 5-8 5-13z m73-18c0 40-9 77-29 110-20 34-46 60-80 80-33 20-70 29-110 29-40 0-77-9-110-29-34-20-60-46-80-80-20-33-29-70-29-110 0-40 9-77 29-110 20-34 46-60 80-80 33-20 70-29 110-29 40 0 77 9 110 29 34 20 60 46 80 80 20 33 29 70 29 110z"/>
  </symbol>

  <symbol id="icon-arrow-circle-o-down" viewBox="0 0 512 512">
    <path d="m357 265c0 2-1 5-3 7l-91 91c-3 2-5 3-7 3-2 0-4-1-7-3l-91-91c-3-3-4-7-2-10 2-4 4-6 9-6l54 0 0-101c0-2 1-4 3-6 2-2 4-3 7-3l54 0c3 0 5 1 7 3 2 2 3 4 3 6l0 101 54 0c3 0 5 1 7 3 2 1 3 3 3 6z m-101-164c-28 0-54 7-78 20-24 14-43 33-57 57-13 24-20 50-20 78 0 28 7 54 20 78 14 24 33 43 57 57 24 13 50 20 78 20 28 0 54-7 78-20 24-14 43-33 57-57 13-24 20-50 20-78 0-28-7-54-20-78-14-24-33-43-57-57-24-13-50-20-78-20z m219 155c0 40-9 77-29 110-20 34-46 60-80 80-33 20-70 29-110 29-40 0-77-9-110-29-34-20-60-46-80-80-20-33-29-70-29-110 0-40 9-77 29-110 20-34 46-60 80-80 33-20 70-29 110-29 40 0 77 9 110 29 34 20 60 46 80 80 20 33 29 70 29 110z"/>
  </symbol>

  <symbol id="icon-arrow-circle-o-left" viewBox="0 0 512 512">
    <path d="m366 229l0 54c0 3-1 5-3 7-2 2-4 3-6 3l-101 0 0 54c0 3-1 5-3 7-1 2-3 3-6 3-2 0-5-1-7-3l-91-91c-2-2-3-4-3-7 0-3 1-5 3-7l91-91c2-2 4-3 7-3 2 0 4 1 6 3 2 2 3 4 3 7l0 54 101 0c2 0 4 1 6 3 2 2 3 4 3 7z m45 27c0-28-7-54-20-78-14-24-33-43-57-57-24-13-50-20-78-20-28 0-54 7-78 20-24 14-43 33-57 57-13 24-20 50-20 78 0 28 7 54 20 78 14 24 33 43 57 57 24 13 50 20 78 20 28 0 54-7 78-20 24-14 43-33 57-57 13-24 20-50 20-78z m64 0c0 40-9 77-29 110-20 34-46 60-80 80-33 20-70 29-110 29-40 0-77-9-110-29-34-20-60-46-80-80-20-33-29-70-29-110 0-40 9-77 29-110 20-34 46-60 80-80 33-20 70-29 110-29 40 0 77 9 110 29 34 20 60 46 80 80 20 33 29 70 29 110z"/>
  </symbol>

  <symbol id="icon-arrow-circle-o-right" viewBox="0 0 512 512">
    <path d="m366 256c0 3-1 5-3 7l-91 91c-2 2-4 3-7 3-2 0-4-1-6-3-2-2-3-4-3-7l0-54-101 0c-2 0-4-1-6-3-2-2-3-4-3-7l0-54c0-3 1-5 3-7 2-2 4-3 6-3l101 0 0-54c0-3 1-5 3-7 1-2 3-3 6-3 2 0 5 1 7 3l91 91c2 2 3 4 3 7z m45 0c0-28-7-54-20-78-14-24-33-43-57-57-24-13-50-20-78-20-28 0-54 7-78 20-24 14-43 33-57 57-13 24-20 50-20 78 0 28 7 54 20 78 14 24 33 43 57 57 24 13 50 20 78 20 28 0 54-7 78-20 24-14 43-33 57-57 13-24 20-50 20-78z m64 0c0 40-9 77-29 110-20 34-46 60-80 80-33 20-70 29-110 29-40 0-77-9-110-29-34-20-60-46-80-80-20-33-29-70-29-110 0-40 9-77 29-110 20-34 46-60 80-80 33-20 70-29 110-29 40 0 77 9 110 29 34 20 60 46 80 80 20 33 29 70 29 110z"/>
  </symbol>

  <symbol id="icon-arrow-circle-o-up" viewBox="0 0 512 512">
    <path d="m356 250c-2 4-4 6-9 6l-54 0 0 101c0 2-1 4-3 6-2 2-4 3-7 3l-54 0c-3 0-5-1-7-3-2-2-3-4-3-6l0-101-54 0c-3 0-5-1-7-3-2-1-3-3-3-6 0-2 1-5 3-7l91-91c3-2 5-3 7-3 2 0 4 1 7 3l91 91c3 3 4 7 2 10z m-100-149c-28 0-54 7-78 20-24 14-43 33-57 57-13 24-20 50-20 78 0 28 7 54 20 78 14 24 33 43 57 57 24 13 50 20 78 20 28 0 54-7 78-20 24-14 43-33 57-57 13-24 20-50 20-78 0-28-7-54-20-78-14-24-33-43-57-57-24-13-50-20-78-20z m219 155c0 40-9 77-29 110-20 34-46 60-80 80-33 20-70 29-110 29-40 0-77-9-110-29-34-20-60-46-80-80-20-33-29-70-29-110 0-40 9-77 29-110 20-34 46-60 80-80 33-20 70-29 110-29 40 0 77 9 110 29 34 20 60 46 80 80 20 33 29 70 29 110z"/>
  </symbol>

  <symbol id="icon-arrow-circle-right" viewBox="0 0 512 512">
    <path d="m404 256c0-5-2-9-5-13l-26-26-104-103c-3-4-8-5-13-5-5 0-9 1-13 5l-26 26c-3 3-5 7-5 13 0 5 2 9 5 12l54 54-143 0c-5 0-9 2-13 6-3 3-5 8-5 13l0 36c0 5 2 10 5 13 4 4 8 6 13 6l143 0-54 54c-3 3-5 7-5 12 0 5 2 10 5 13l26 26c4 4 8 5 13 5 5 0 10-1 13-5l104-103 26-26c3-4 5-8 5-13z m71 0c0 40-9 77-29 110-20 34-46 60-80 80-33 20-70 29-110 29-40 0-77-9-110-29-34-20-60-46-80-80-20-33-29-70-29-110 0-40 9-77 29-110 20-34 46-60 80-80 33-20 70-29 110-29 40 0 77 9 110 29 34 20 60 46 80 80 20 33 29 70 29 110z"/>
  </symbol>

  <symbol id="icon-arrow-circle-up" viewBox="0 0 512 512">
    <path d="m403 256c0-5-1-10-5-13l-103-104-26-26c-4-3-8-5-13-5-5 0-9 2-13 5l-26 26-103 104c-4 3-5 8-5 13 0 5 1 9 5 13l26 26c3 3 7 5 13 5 5 0 9-2 12-5l54-54 0 143c0 5 2 9 6 13 3 3 8 5 13 5l36 0c5 0 10-2 13-5 4-4 6-8 6-13l0-143 54 54c3 3 7 5 12 5 5 0 10-2 13-5l26-26c4-4 5-8 5-13z m72 0c0 40-9 77-29 110-20 34-46 60-80 80-33 20-70 29-110 29-40 0-77-9-110-29-34-20-60-46-80-80-20-33-29-70-29-110 0-40 9-77 29-110 20-34 46-60 80-80 33-20 70-29 110-29 40 0 77 9 110 29 34 20 60 46 80 80 20 33 29 70 29 110z"/>
  </symbol>

  <symbol id="icon-arrow-down-1" viewBox="0 0 512 512">
    <path d="m479 238c0 10-4 18-11 25l-186 187c-7 7-16 10-26 10-10 0-19-3-26-10l-186-187c-7-6-11-15-11-25 0-10 4-19 11-26l21-22c8-7 17-10 26-10 11 0 19 3 26 10l84 84 0-201c0-10 4-18 11-26 7-7 16-10 26-10l36 0c10 0 19 3 26 10 7 8 11 16 11 26l0 201 84-84c7-7 15-10 26-10 9 0 18 3 26 10l21 22c7 7 11 16 11 26z"/>
  </symbol>

  <symbol id="icon-arrow-left-1" viewBox="0 0 512 512">
    <path d="m475 256l0 37c0 10-3 18-9 25-6 8-14 11-24 11l-201 0 84 84c7 7 10 16 10 26 0 10-3 19-10 26l-22 21c-7 7-15 11-26 11-9 0-18-4-26-11l-186-186c-7-7-10-16-10-26 0-10 3-18 10-26l186-185c8-8 16-11 26-11 10 0 19 3 26 11l22 21c7 7 10 16 10 26 0 10-3 18-10 26l-84 83 201 0c10 0 18 4 24 11 6 7 9 16 9 26z"/>
  </symbol>

  <symbol id="icon-arrow-right-1" viewBox="0 0 512 512">
    <path d="m457 274c0 11-3 19-10 26l-186 186c-8 7-17 11-26 11-10 0-19-4-26-11l-22-21c-7-7-10-16-10-26 0-10 3-19 10-26l84-84-201 0c-10 0-18-3-24-11-6-7-9-15-9-25l0-37c0-10 3-19 9-26 6-7 14-11 24-11l201 0-84-84c-7-6-10-15-10-25 0-11 3-19 10-26l22-21c7-8 16-11 26-11 10 0 18 3 26 11l186 186c7 6 10 15 10 25z"/>
  </symbol>

  <symbol id="icon-arrow-up-1" viewBox="0 0 512 512">
    <path d="m479 277c0 10-4 19-11 26l-21 22c-8 7-16 10-26 10-11 0-19-3-26-10l-84-84 0 201c0 10-4 18-11 24-7 6-16 9-26 9l-36 0c-10 0-19-3-26-9-7-6-11-14-11-24l0-201-84 84c-7 7-15 10-26 10-10 0-18-3-25-10l-22-22c-7-7-11-16-11-26 0-10 4-18 11-26l186-186c7-7 16-10 26-10 10 0 19 3 26 10l186 186c7 8 11 17 11 26z"/>
  </symbol>

  <symbol id="icon-bed" viewBox="0 0 512 512">
    <path d="m37 293l493 0c5 0 10 1 13 5 4 4 6 8 6 13l0 128-74 0 0-73-438 0 0 73-74 0 0-348c0-5 2-9 6-12 3-4 8-6 13-6l36 0c5 0 10 2 13 6 4 3 6 7 6 12z m164-92c0-20-7-37-21-52-15-14-32-21-52-21-20 0-37 7-52 21-14 15-21 32-21 52 0 20 7 38 21 52 15 14 32 21 52 21 20 0 37-7 52-21 14-14 21-32 21-52z m348 73l0-18c0-30-11-56-33-78-21-21-47-32-77-32l-201 0c-5 0-10 2-13 6-4 3-6 8-6 13l0 109z"/>
  </symbol>

  <symbol id="icon-bicycle" viewBox="0 0 512 512">
    <path d="m145 329l-90 0c-8 0-13-3-17-10-3-7-2-13 2-19l54-72c-12-6-25-9-39-9-25 0-47 9-65 27-18 18-27 40-27 65 0 25 9 47 27 64 18 18 40 27 65 27 22 0 41-7 58-20 17-14 27-32 32-53z m-54-36l54 0c-4-17-11-31-22-43z m138 0l82-110-137 0-29 38c20 19 32 43 36 72z m320 18c0-25-9-47-27-65-18-18-40-27-65-27-11 0-23 3-34 7l49 75c3 4 4 9 3 14-1 5-3 8-8 11-2 2-6 3-10 3-7 0-12-3-15-8l-50-74c-17 18-26 39-26 64 0 25 9 47 27 64 17 18 39 27 64 27 25 0 47-9 65-27 18-17 27-39 27-64z m36 0c0 35-12 65-37 90-25 25-56 38-91 38-35 0-65-13-90-38-25-25-38-55-38-90 0-19 4-36 11-53 8-16 18-30 32-42l-19-28-101 134c-3 5-8 7-14 7l-57 0c-4 31-18 57-42 78-24 21-52 32-84 32-35 0-66-13-91-38-25-25-37-55-37-90 0-35 12-66 37-91 25-25 56-37 91-37 22 0 42 5 61 16l39-53-64 0c-5 0-9-2-12-5-4-4-6-8-6-13 0-5 2-9 6-13 3-3 7-5 12-5l110 0 0 36 124 0-24-36-63 0c-5 0-10-2-13-6-4-3-6-8-6-13 0-5 2-9 6-12 3-4 8-6 13-6l73 0c6 0 11 3 15 8l76 114c18-8 36-12 55-12 35 0 66 12 91 37 25 25 37 56 37 91z"/>
  </symbol>

  <symbol id="icon-birthday-cake" viewBox="0 0 512 512">
    <path d="m512 402l0 110-512 0 0-110c9 0 17-1 24-4 8-2 14-5 17-8 4-2 8-6 14-10 5-5 10-9 14-11 4-2 10-3 16-3 7 0 12 1 16 3 4 2 9 6 15 11 6 4 10 8 14 11 3 2 9 5 16 7 8 3 16 4 25 4 8 0 17-1 24-4 8-3 13-5 17-8 3-2 8-6 13-10 4-4 8-6 10-8 2-2 5-3 9-4 3-2 7-2 12-2 7 0 12 1 16 3 4 2 9 6 15 11 5 4 10 8 13 10 4 3 10 6 17 8 8 3 16 4 24 4 9 0 17-1 25-4 7-2 13-5 17-8 3-2 8-6 13-10 6-5 11-9 15-11 4-2 9-3 16-3 6 0 12 1 16 3 4 2 9 6 14 11 6 4 10 8 14 10 3 3 9 6 17 8 7 3 15 4 24 4z m0-91l0 55c-7 0-12-1-16-3-4-3-9-6-15-11-5-5-10-9-13-11-4-3-9-5-17-8-7-3-16-4-24-4-9 0-17 1-25 4-7 3-13 5-16 8-4 2-8 6-14 11-4 3-7 6-9 7-2 2-5 3-9 5-4 1-8 2-13 2-6 0-12-1-16-3-4-3-9-6-14-11-6-5-10-9-14-11-3-3-9-5-16-8-8-3-16-4-25-4-9 0-17 2-24 4-8 3-13 6-17 8-3 2-8 6-14 11-4 3-7 6-9 7-2 2-5 3-9 5-3 1-8 2-12 2-7 0-12-1-16-3-4-3-9-6-15-11-5-5-10-8-13-11-4-3-10-5-17-8-8-3-16-4-25-4-8 0-17 1-24 4-8 3-13 5-17 8-3 2-8 6-13 11-6 5-11 8-15 11-4 2-9 3-16 3l0-55c0-15 5-28 16-39 11-11 24-16 39-16l18 0 0-128 73 0 0 128 73 0 0-128 74 0 0 128 73 0 0-128 73 0 0 128 18 0c15 0 28 5 39 16 11 11 16 24 16 39z m-366-247c0 15-3 26-10 34-7 8-16 12-26 12-10 0-19-4-26-11-7-7-11-16-11-26 0-5 1-10 3-14 2-5 4-8 7-10 2-2 5-5 8-8 4-3 7-6 9-9 3-3 5-7 7-13 2-5 3-12 3-19 7 0 15 7 23 21 9 14 13 29 13 43z m147 0c0 15-4 26-11 34-7 8-15 12-26 12-10 0-19-4-26-11-7-7-11-16-11-26 0-5 1-10 3-14 2-5 4-8 7-10 3-2 5-5 9-8 3-3 6-6 9-9 2-3 4-7 6-13 2-5 3-12 3-19 7 0 15 7 24 21 8 14 13 29 13 43z m146 0c0 15-4 26-10 34-7 8-16 12-27 12-10 0-18-4-26-11-7-7-10-16-10-26 0-5 1-10 2-14 2-5 4-8 7-10 3-2 6-5 9-8 3-3 6-6 9-9 3-3 5-7 7-13 1-5 2-12 2-19 8 0 15 7 24 21 9 14 13 29 13 43z"/>
  </symbol>

  <symbol id="icon-bus" viewBox="0 0 512 512">
    <path d="m146 347c0-10-3-18-10-25-8-8-16-11-26-11-10 0-19 3-26 11-7 7-11 15-11 25 0 11 4 19 11 26 7 7 16 11 26 11 10 0 18-4 26-11 7-7 10-15 10-26z m293 0c0-10-4-18-11-25-7-8-16-11-26-11-10 0-18 3-26 11-7 7-10 15-10 25 0 11 3 19 10 26 8 7 16 11 26 11 10 0 19-4 26-11 7-7 11-15 11-26z m-13-113l-21-109c-1-5-3-8-6-11-4-3-7-4-12-4l-262 0c-5 0-8 1-12 4-3 3-5 6-6 11l-21 109c-1 6 1 11 4 15 4 5 9 7 14 7l304 0c5 0 10-2 14-7 3-4 5-9 4-15z m-65-175c0-3-1-7-4-9-3-3-6-4-10-4l-182 0c-4 0-7 1-10 4-3 2-4 6-4 9 0 4 1 7 4 10 3 3 6 4 10 4l182 0c4 0 7-1 10-4 3-3 4-6 4-10z m114 208l0 172-36 0 0 36c0 11-4 19-11 26-7 7-16 11-26 11-10 0-18-4-26-11-7-7-10-15-10-26l0-36-220 0 0 36c0 11-3 19-10 26-8 7-16 11-26 11-10 0-19-4-26-11-7-7-11-15-11-26l0-36-36 0 0-172c0-22 2-43 7-64l29-130c2-15 11-28 28-39 17-11 39-20 66-25 27-6 56-9 89-9 33 0 62 3 89 9 27 5 49 14 66 25 17 11 26 24 28 39l30 130c4 19 6 41 6 64z"/>
  </symbol>

  <symbol id="icon-calendar-check-o" viewBox="0 0 512 512">
    <path d="m372 275l-146 147c-2 1-4 2-7 2-2 0-4-1-6-2l-82-83c-2-1-3-4-3-6 0-3 1-5 3-6l13-14c1-1 4-2 6-2 2 0 5 1 7 2l62 63 127-127c2-1 4-2 7-2 2 0 4 1 6 2l13 14c2 1 3 3 3 6 0 2-1 5-3 6z m-335 200l402 0 0-292-402 0z m109-347l0-82c0-3-1-5-2-7-2-2-4-2-7-2l-18 0c-3 0-5 0-7 2-1 2-2 4-2 7l0 82c0 3 1 5 2 7 2 1 4 2 7 2l18 0c3 0 5-1 7-2 1-2 2-4 2-7z m220 0l0-82c0-3-1-5-3-7-2-2-4-2-6-2l-19 0c-2 0-5 0-6 2-2 2-3 4-3 7l0 82c0 3 1 5 3 7 1 1 4 2 6 2l19 0c2 0 4-1 6-2 2-2 3-4 3-7z m109-18l0 365c0 10-3 19-10 26-8 7-16 11-26 11l-402 0c-10 0-19-4-26-11-7-7-11-16-11-26l0-365c0-10 4-19 11-26 7-7 16-11 26-11l36 0 0-27c0-13 5-24 14-33 9-9 19-13 32-13l18 0c13 0 23 4 32 13 9 9 14 20 14 33l0 27 110 0 0-27c0-13 4-24 13-33 9-9 20-13 32-13l19 0c12 0 23 4 32 13 9 9 13 20 13 33l0 27 37 0c10 0 18 4 26 11 7 7 10 16 10 26z"/>
  </symbol>

  <symbol id="icon-calendar-minus-o" viewBox="0 0 512 512">
    <path d="m329 320l0 18c0 3-1 5-2 7-2 2-4 2-7 2l-165 0c-2 0-4 0-6-2-2-2-3-4-3-7l0-18c0-3 1-5 3-7 2-1 4-2 6-2l165 0c3 0 5 1 7 2 1 2 2 4 2 7z m-292 155l402 0 0-292-402 0z m109-347l0-82c0-3-1-5-2-7-2-2-4-2-7-2l-18 0c-3 0-5 0-7 2-1 2-2 4-2 7l0 82c0 3 1 5 2 7 2 1 4 2 7 2l18 0c3 0 5-1 7-2 1-2 2-4 2-7z m220 0l0-82c0-3-1-5-3-7-2-2-4-2-6-2l-19 0c-2 0-5 0-6 2-2 2-3 4-3 7l0 82c0 3 1 5 3 7 1 1 4 2 6 2l19 0c2 0 4-1 6-2 2-2 3-4 3-7z m109-18l0 365c0 10-3 19-10 26-8 7-16 11-26 11l-402 0c-10 0-19-4-26-11-7-7-11-16-11-26l0-365c0-10 4-19 11-26 7-7 16-11 26-11l36 0 0-27c0-13 5-24 14-33 9-9 19-13 32-13l18 0c13 0 23 4 32 13 9 9 14 20 14 33l0 27 110 0 0-27c0-13 4-24 13-33 9-9 20-13 32-13l19 0c12 0 23 4 32 13 9 9 13 20 13 33l0 27 37 0c10 0 18 4 26 11 7 7 10 16 10 26z"/>
  </symbol>

  <symbol id="icon-calendar-o" viewBox="0 0 512 512">
    <path d="m55 475l402 0 0-292-402 0z m110-347l0-82c0-3-1-5-3-7-2-2-4-2-7-2l-18 0c-3 0-5 0-6 2-2 2-3 4-3 7l0 82c0 3 1 5 3 7 1 1 3 2 6 2l18 0c3 0 5-1 7-2 2-2 3-4 3-7z m219 0l0-82c0-3-1-5-3-7-1-2-3-2-6-2l-18 0c-3 0-5 0-7 2-2 2-3 4-3 7l0 82c0 3 1 5 3 7 2 1 4 2 7 2l18 0c3 0 5-1 6-2 2-2 3-4 3-7z m110-18l0 365c0 10-4 19-11 26-7 7-16 11-26 11l-402 0c-10 0-19-4-26-11-7-7-11-16-11-26l0-365c0-10 4-19 11-26 7-7 16-11 26-11l36 0 0-27c0-13 5-24 14-33 9-9 20-13 32-13l18 0c13 0 24 4 33 13 9 9 13 20 13 33l0 27 110 0 0-27c0-13 4-24 13-33 9-9 20-13 33-13l18 0c12 0 23 4 32 13 9 9 14 20 14 33l0 27 36 0c10 0 19 4 26 11 7 7 11 16 11 26z"/>
  </symbol>

  <symbol id="icon-calendar-plus-o" viewBox="0 0 512 512">
    <path d="m439 73c10 0 18 4 26 11 7 7 10 16 10 26l0 365c0 10-3 19-10 26-8 7-16 11-26 11l-402 0c-10 0-19-4-26-11-7-7-11-16-11-26l0-365c0-10 4-19 11-26 7-7 16-11 26-11l36 0 0-27c0-13 5-24 14-33 9-9 19-13 32-13l18 0c13 0 23 4 32 13 9 9 14 20 14 33l0 27 110 0 0-27c0-13 4-24 13-33 9-9 20-13 32-13l19 0c12 0 23 4 32 13 9 9 13 20 13 33l0 27z m-110-27l0 82c0 3 1 5 3 7 1 1 4 2 6 2l19 0c2 0 4-1 6-2 2-2 3-4 3-7l0-82c0-3-1-5-3-7-2-2-4-2-6-2l-19 0c-2 0-5 0-6 2-2 2-3 4-3 7z m-219 0l0 82c0 3 1 5 2 7 2 1 4 2 7 2l18 0c3 0 5-1 7-2 1-2 2-4 2-7l0-82c0-3-1-5-2-7-2-2-4-2-7-2l-18 0c-3 0-5 0-7 2-1 2-2 4-2 7z m329 429l0-292-402 0 0 292z m-183-164l64 0c3 0 5 1 7 2 1 2 2 4 2 7l0 18c0 3-1 5-2 7-2 2-4 2-7 2l-64 0 0 64c0 3-1 5-3 7-1 2-3 3-6 3l-18 0c-3 0-5-1-7-3-2-2-3-4-3-7l0-64-64 0c-2 0-4 0-6-2-2-2-3-4-3-7l0-18c0-3 1-5 3-7 2-1 4-2 6-2l64 0 0-64c0-3 1-5 3-7 2-1 4-2 7-2l18 0c3 0 5 1 6 2 2 2 3 4 3 7z"/>
  </symbol>

  <symbol id="icon-calendar-times-o" viewBox="0 0 512 512">
    <path d="m317 396l-13 13c-1 2-4 2-6 2-2 0-5 0-7-2l-53-54-54 54c-2 2-4 2-7 2-2 0-4 0-6-2l-13-13c-2-2-3-4-3-7 0-2 1-4 3-6l54-54-54-54c-2-1-3-4-3-6 0-3 1-5 3-6l13-14c2-1 4-2 6-2 3 0 5 1 7 2l54 54 53-54c2-1 5-2 7-2 2 0 5 1 6 2l13 14c2 1 3 3 3 6 0 2-1 5-3 6l-53 54 53 54c2 2 3 4 3 6 0 3-1 5-3 7z m-280 79l402 0 0-292-402 0z m109-347l0-82c0-3-1-5-2-7-2-2-4-2-7-2l-18 0c-3 0-5 0-7 2-1 2-2 4-2 7l0 82c0 3 1 5 2 7 2 1 4 2 7 2l18 0c3 0 5-1 7-2 1-2 2-4 2-7z m220 0l0-82c0-3-1-5-3-7-2-2-4-2-6-2l-19 0c-2 0-5 0-6 2-2 2-3 4-3 7l0 82c0 3 1 5 3 7 1 1 4 2 6 2l19 0c2 0 4-1 6-2 2-2 3-4 3-7z m109-18l0 365c0 10-3 19-10 26-8 7-16 11-26 11l-402 0c-10 0-19-4-26-11-7-7-11-16-11-26l0-365c0-10 4-19 11-26 7-7 16-11 26-11l36 0 0-27c0-13 5-24 14-33 9-9 19-13 32-13l18 0c13 0 23 4 32 13 9 9 14 20 14 33l0 27 110 0 0-27c0-13 4-24 13-33 9-9 20-13 32-13l19 0c12 0 23 4 32 13 9 9 13 20 13 33l0 27 37 0c10 0 18 4 26 11 7 7 10 16 10 26z"/>
  </symbol>

  <symbol id="icon-car" viewBox="0 0 512 512">
    <path d="m101 311c0-13-5-23-14-32-9-9-20-14-32-14-13 0-23 5-32 14-9 9-14 19-14 32 0 12 5 23 14 32 9 9 19 14 32 14 12 0 23-5 32-14 9-9 14-20 14-32z m10-92l290 0-25-102c-1-1-2-3-4-5-3-1-5-2-6-2l-220 0c-1 0-3 1-6 2-2 2-3 4-4 5z m392 92c0-13-5-23-14-32-9-9-19-14-32-14-12 0-23 5-32 14-9 9-14 19-14 32 0 12 5 23 14 32 9 9 20 14 32 14 13 0 23-5 32-14 9-9 14-20 14-32z m46-28l0 110c0 3-1 5-3 7-2 1-4 2-7 2l-27 0 0 37c0 15-5 28-16 39-11 10-24 16-39 16-15 0-28-6-39-16-10-11-16-24-16-39l0-37-292 0 0 37c0 15-6 28-16 39-11 10-24 16-39 16-15 0-28-6-39-16-11-11-16-24-16-39l0-37-27 0c-3 0-5-1-7-2-2-2-3-4-3-7l0-110c0-17 7-32 19-45 13-12 28-19 45-19l8 0 30-119c5-18 15-33 30-45 16-12 33-18 51-18l220 0c18 0 35 6 51 18 15 12 25 27 30 45l30 119 8 0c17 0 32 7 45 19 12 13 19 28 19 45z"/>
  </symbol>

  <symbol id="icon-check-square" viewBox="0 0 512 512">
    <path d="m232 371l176-175c3-4 5-8 5-13 0-5-2-9-5-13l-29-29c-4-4-8-6-13-6-5 0-10 2-13 6l-134 133-60-60c-3-4-8-5-13-5-5 0-9 1-13 5l-29 29c-3 4-5 8-5 13 0 5 2 9 5 13l103 102c3 4 7 6 12 6 5 0 10-2 13-6z m243-252l0 274c0 23-8 42-24 58-16 16-35 24-58 24l-274 0c-23 0-42-8-58-24-16-16-24-35-24-58l0-274c0-23 8-42 24-58 16-16 35-24 58-24l274 0c23 0 42 8 58 24 16 16 24 35 24 58z"/>
  </symbol>

  <symbol id="icon-check-square-o" viewBox="0 0 512 512">
    <path d="m421 266l0 91c0 22-8 42-25 58-16 16-35 24-58 24l-237 0c-23 0-42-8-59-24-16-16-24-36-24-58l0-238c0-23 8-42 24-58 17-16 36-24 59-24l237 0c12 0 23 2 34 7 3 1 4 3 5 6 0 4 0 6-3 9l-14 14c-2 1-4 2-6 2-1 0-2 0-3 0-4-1-9-2-13-2l-237 0c-13 0-24 5-33 14-9 9-13 19-13 32l0 238c0 12 4 23 13 32 9 9 20 13 33 13l237 0c13 0 24-4 33-13 9-9 13-20 13-32l0-73c0-2 1-5 3-6l18-19c2-1 4-2 6-2 2 0 3 0 4 0 4 2 6 5 6 9z m66-140l-233 233c-5 4-10 6-16 6-7 0-12-2-17-6l-122-123c-5-5-7-10-7-17 0-6 2-11 7-16l31-31c5-5 10-7 16-7 7 0 12 2 17 7l75 75 185-185c4-5 10-7 16-7 6 0 12 2 16 7l32 31c4 5 6 10 6 17 0 6-2 11-6 16z"/>
  </symbol>

  <symbol id="icon-chevron-down" viewBox="0 0 512 512">
    <path d="m481 231l-212 212c-4 3-8 5-13 5-5 0-9-2-13-5l-212-212c-3-4-5-8-5-13 0-5 2-10 5-13l48-47c3-4 7-6 12-6 5 0 10 2 13 6l152 151 152-151c3-4 8-6 13-6 5 0 9 2 12 6l48 47c3 3 5 8 5 13 0 5-2 9-5 13z"/>
  </symbol>

  <symbol id="icon-chevron-left" viewBox="0 0 512 512">
    <path d="m408 86l-152 152 152 151c3 4 5 8 5 13 0 5-2 10-5 13l-48 48c-3 3-8 5-13 5-5 0-9-2-12-5l-212-212c-4-4-6-8-6-13 0-5 2-10 6-13l212-212c3-4 7-6 12-6 5 0 10 2 13 6l48 47c3 4 5 8 5 13 0 5-2 9-5 13z"/>
  </symbol>

  <symbol id="icon-chevron-right" viewBox="0 0 512 512">
    <path d="m389 251l-212 212c-3 3-7 5-12 5-5 0-10-2-13-5l-48-48c-3-3-5-8-5-13 0-5 2-9 5-13l152-151-152-152c-3-4-5-8-5-13 0-5 2-9 5-13l48-47c3-4 8-6 13-6 5 0 9 2 12 6l212 212c4 3 6 8 6 13 0 5-2 9-6 13z"/>
  </symbol>

  <symbol id="icon-chevron-up" viewBox="0 0 512 512">
    <path d="m481 380l-48 47c-3 4-7 6-12 6-5 0-10-2-13-6l-152-151-152 151c-3 4-8 6-13 6-5 0-9-2-12-6l-48-47c-3-3-5-8-5-13 0-5 2-9 5-13l212-211c4-4 8-6 13-6 5 0 9 2 13 6l212 211c3 4 5 8 5 13 0 5-2 10-5 13z"/>
  </symbol>

  <symbol id="icon-cloud-download" viewBox="0 0 512 512">
    <path d="m347 265c0-3 0-5-2-6-2-2-4-3-7-3l-64 0 0-101c0-2-1-4-2-6-2-2-4-3-7-3l-55 0c-2 0-4 1-6 3-2 2-3 4-3 6l0 101-64 0c-2 0-4 1-6 3-2 2-3 4-3 6 0 3 1 5 3 7l100 100c2 2 4 3 7 3 2 0 5-1 6-3l101-100c1-2 2-5 2-7z m183 64c0 30-10 56-32 78-21 21-47 32-77 32l-311 0c-36 0-66-13-91-38-25-25-37-55-37-90 0-25 6-48 20-69 13-21 31-36 53-47 0-6 0-10 0-12 0-41 14-75 43-104 28-28 63-42 103-42 30 0 57 8 82 24 24 17 42 39 54 66 13-11 29-17 47-17 20 0 37 7 52 21 14 14 21 32 21 52 0 14-4 27-12 39 25 6 46 19 61 39 16 20 24 43 24 68z"/>
  </symbol>

  <symbol id="icon-cloud-upload" viewBox="0 0 512 512">
    <path d="m347 247c0-3 0-5-2-7l-101-100c-1-2-4-3-6-3-3 0-5 1-7 3l-100 100c-2 2-3 5-3 7 0 3 1 5 3 6 1 2 3 3 6 3l64 0 0 101c0 2 1 4 3 6 2 2 4 3 6 3l55 0c3 0 5-1 7-3 1-2 2-4 2-6l0-101 64 0c3 0 5-1 7-3 2-2 2-4 2-6z m183 82c0 30-10 56-32 78-21 21-47 32-77 32l-311 0c-36 0-66-13-91-38-25-25-37-55-37-90 0-25 6-48 20-69 13-21 31-36 53-47 0-6 0-10 0-12 0-41 14-75 43-104 28-28 63-42 103-42 30 0 57 8 82 24 24 17 42 39 54 66 13-11 29-17 47-17 20 0 37 7 52 21 14 14 21 32 21 52 0 14-4 27-12 39 25 6 46 19 61 39 16 20 24 43 24 68z"/>
  </symbol>

  <symbol id="icon-code" viewBox="0 0 512 512">
    <path d="m158 400l-14 14c-2 2-4 3-7 3-2 0-5-1-6-3l-134-133c-1-2-2-4-2-7 0-2 1-4 2-6l134-133c1-2 4-3 6-3 3 0 5 1 7 3l14 14c2 2 3 4 3 6 0 3-1 5-3 7l-112 112 112 113c2 1 3 4 3 6 0 3-1 5-3 7z m169-305l-107 369c0 2-2 4-4 5-2 2-5 2-7 1l-18-5c-2-1-4-2-5-4-1-2-2-5-1-7l107-369c0-3 2-4 4-6 2-1 5-1 7 0l18 4c2 1 4 3 5 5 1 2 2 4 1 7z m188 186l-134 133c-1 2-4 3-6 3-3 0-5-1-7-3l-14-14c-2-2-3-4-3-7 0-2 1-5 3-6l112-113-112-112c-2-2-3-4-3-7 0-2 1-4 3-6l14-14c2-2 4-3 7-3 2 0 5 1 6 3l134 133c1 2 2 4 2 6 0 3-1 5-2 7z"/>
  </symbol>

  <symbol id="icon-coffee" viewBox="0 0 512 512">
    <path d="m457 183c0-15-5-28-16-39-11-11-23-16-39-16l-18 0 0 110 18 0c16 0 28-6 39-16 11-11 16-24 16-39z m-475 219l512 0c0 20-7 38-22 52-14 14-31 21-51 21l-366 0c-20 0-38-7-52-21-14-14-21-32-21-52z m530-219c0 30-11 56-32 77-22 22-47 33-78 33l-18 0 0 9c0 17-6 32-19 45-12 12-27 19-45 19l-201 0c-18 0-33-7-45-19-13-13-19-28-19-45l0-211c0-5 2-9 5-12 4-4 8-6 13-6l329 0c31 0 56 11 78 32 21 22 32 48 32 78z"/>
  </symbol>

  <symbol id="icon-female" viewBox="0 0 512 512">
    <path d="m439 302c0 7-3 14-8 19-5 5-12 8-20 8-9 0-17-4-22-12l-65-98-13 0 0 38 70 118c2 2 3 6 3 9 0 5-2 9-5 13-4 3-8 5-13 5l-55 0 0 78c0 9-3 16-10 23-6 6-13 9-22 9l-46 0c-9 0-16-3-22-9-7-7-10-14-10-23l0-78-55 0c-5 0-9-2-13-5-3-4-5-8-5-13 0-3 1-7 3-9l70-118 0-38-13 0-65 98c-5 8-13 12-22 12-8 0-15-3-20-8-5-5-8-12-8-19 0-6 2-11 5-15l73-110c14-21 31-31 50-31l110 0c19 0 36 10 50 31l73 110c3 4 5 9 5 15z m-119-229c0 18-6 33-19 45-12 13-27 19-45 19-18 0-33-6-45-19-13-12-19-27-19-45 0-18 6-33 19-45 12-13 27-19 45-19 18 0 33 6 45 19 13 12 19 27 19 45z"/>
  </symbol>

  <symbol id="icon-git" viewBox="0 0 512 512">
    <path d="m170 433c0-19-16-29-47-29-30 0-45 10-45 30 0 19 16 29 49 29 29 0 43-10 43-30z m-17-216c0-12-3-21-8-29-6-8-15-12-26-12-23 0-35 14-35 41 0 26 12 39 35 39 23 0 34-13 34-39z m77-93l0 58c-7 2-14 4-23 6 3 8 5 16 5 24 0 24-7 45-21 62-14 17-33 28-56 32-8 2-13 4-17 8-4 4-6 9-6 17 0 5 2 10 7 14 4 4 10 7 16 9 7 3 15 5 23 7 8 2 16 4 24 7 8 3 16 6 23 11 6 4 12 10 16 18 5 8 7 17 7 28 0 58-35 87-104 87-13 0-26-1-37-4-12-2-23-6-33-11-11-6-19-14-25-24-6-10-10-22-10-36 0-32 18-53 52-64l0-2c-12-7-19-19-19-36 0-20 6-33 18-39l0-1c-13-4-25-15-34-31-9-16-13-32-13-47 0-27 9-49 27-66 18-18 40-27 67-27 18 0 35 5 51 14 18 0 39-5 62-14z m91 252l-64 0c1-9 2-21 2-38l0-174c0-18-1-30-2-37l64 0c-1 6-1 18-1 36l0 175c0 17 0 29 1 38z m172-63l0 56c-14 7-31 11-50 11-12 0-22-2-31-6-8-4-15-9-20-14-4-6-8-13-11-23-3-9-5-17-5-26-1-8-1-18-1-29l0-101 0 0 0-1c-1 0-3 0-5 0-3 0-4 0-5 0-4 0-10 0-17 1l0-54 27 0 0-22c0-10 0-18-2-25l65 0c-1 8-1 24-1 47l48 0 0 54c-2 0-7 0-12 0-5-1-9-1-12-1l-24 0 0 105c0 25 8 37 24 37 12 0 22-3 32-9z m-165-271c0 11-4 21-11 29-8 8-17 12-28 12-11 0-20-4-28-12-7-8-11-18-11-29 0-11 4-21 11-29 8-9 17-13 28-13 11 0 21 4 28 13 7 8 11 18 11 29z"/>
  </symbol>

  <symbol id="icon-ship" viewBox="0 0 512 512">
    <path d="m481 444c3-3 8-5 13-5 5 0 9 2 13 5l36 37-26 26-23-24-24 24c-3 3-8 5-13 5-5 0-9-2-13-5l-23-24-24 24c-4 3-8 5-13 5-5 0-9-2-13-5l-24-24-23 24c-4 3-8 5-13 5-5 0-9-2-13-5l-24-24-23 24c-4 3-8 5-13 5-5 0-10-2-13-5l-24-24-24 24c-3 3-7 5-12 5-5 0-10-2-13-5l-24-24-24 24c-3 3-8 5-13 5-5 0-9-2-12-5l-24-24-24 24c-3 3-8 5-13 5-5 0-9-2-13-5l-36-37 26-26 23 24 24-24c4-3 8-5 13-5 5 0 9 2 13 5l23 24 24-24c4-3 8-5 13-5 5 0 9 2 13 5l24 24 23-24c4-3 8-5 13-5 5 0 9 2 13 5l24 24 23-24c4-3 8-5 13-5 5 0 10 2 13 5l24 24 24-24c3-3 7-5 12-5 5 0 10 2 13 5l24 24 24-24c3-3 8-5 13-5 5 0 9 2 12 5l24 24z m-450-11c-3 4-8 6-13 6-5 0-9-2-13-6l-36-36 26-26 23 24 24-24c4-3 8-5 13-5 5 0 9 2 13 5l23 24 19-19 0-83-60-90c-4-5-4-10-2-16 2-6 5-10 11-12l51-16 0-86 36 0 0-36 73 0 0-37 74 0 0 37 73 0 0 36 36 0 0 86 51 16c6 2 9 6 11 12 2 6 2 11-2 16l-60 90 0 83 6-5c3-3 8-5 13-5 5 0 9 2 12 5l24 24 24-24c3-3 8-5 13-5 5 0 9 2 13 5l36 37-26 25-23-23-24 23c-3 4-8 6-13 6-5 0-9-2-13-6l-23-23-24 23c-4 4-8 6-13 6-5 0-9-2-13-6l-24-23-23 23c-4 4-8 6-13 6-5 0-9-2-13-6l-24-23-23 23c-4 4-8 6-13 6-5 0-10-2-13-6l-24-23-24 23c-3 4-7 6-12 6-5 0-10-2-13-6l-24-23-24 23c-3 4-8 6-13 6-5 0-9-2-12-6l-24-23z m115-323l0 36 110-36 110 36 0-36-37 0 0-37-146 0 0 37z"/>
  </symbol>

  <symbol id="icon-checkmark" viewBox="0 0 512 512">
    <path d="m192 491l-122-214l74-42l49 86l176-300l73 44z"/>
  </symbol>

  <symbol id="icon-times" viewBox="0 0 512 512">
    <path d="m426 378c0 7-3 14-8 19l-39 39c-5 5-12 8-20 8-7 0-14-3-19-8l-84-84-84 84c-5 5-12 8-19 8-8 0-15-3-20-8l-39-39c-5-5-8-12-8-19 0-8 3-14 8-20l84-84-84-84c-5-5-8-12-8-19 0-8 3-14 8-20l39-38c5-6 12-8 20-8 7 0 14 2 19 8l84 84 84-84c5-6 12-8 19-8 8 0 15 2 20 8l39 38c5 6 8 12 8 20 0 7-3 14-8 19l-84 84 84 84c5 6 8 12 8 20z"/>
  </symbol>

  <symbol id="icon-times-circle" viewBox="0 0 512 512">
    <path d="m365 321c0-5-2-10-6-13l-51-52 51-52c4-3 6-8 6-13 0-5-2-9-6-13l-25-25c-4-4-8-6-13-6-5 0-10 2-13 6l-52 51-52-51c-3-4-8-6-13-6-5 0-9 2-13 6l-25 25c-4 4-6 8-6 13 0 5 2 10 6 13l51 52-51 52c-4 3-6 8-6 13 0 5 2 9 6 13l25 25c4 4 8 6 13 6 5 0 10-2 13-6l52-51 52 51c3 4 8 6 13 6 5 0 9-2 13-6l25-25c4-4 6-8 6-13z m110-65c0 40-9 77-29 110-20 34-46 60-80 80-33 20-70 29-110 29-40 0-77-9-110-29-34-20-60-46-80-80-20-33-29-70-29-110 0-40 9-77 29-110 20-34 46-60 80-80 33-20 70-29 110-29 40 0 77 9 110 29 34 20 60 46 80 80 20 33 29 70 29 110z"/>
  </symbol>

  <symbol id="icon-cancel-squared" viewBox="0 0 512 512">
    <path d="m410 51c14 0 26 5 36 15c10 10 15 22 15 36c0 0 0 308 0 308c0 13-5 25-15 35c-10 11-22 16-36 16c0 0-308 0-308 0c-13 0-25-5-35-16c-11-10-16-22-16-35c0 0 0-308 0-308c0-14 5-26 16-36c10-10 22-15 35-15c0 0 308 0 308 0m-75 327c0 0 44-44 44-44c0 0-79-78-79-78c0 0 79-79 79-79c0 0-44-44-44-44c0 0-79 78-79 78c0 0-78-78-78-78c0 0-45 44-45 44c0 0 79 79 79 79c0 0-79 78-79 78c0 0 45 44 45 44c0 0 78-78 78-78c0 0 79 78 79 78"/>
  </symbol>

  <symbol id="icon-edit" viewBox="0 0 1024 1024">
    <g>
      <path
        d="M1018.17 291.89l-286.058-286.058c-9.334-9.334-21.644-7.234-27.356 4.666l-38.354 79.904 267.198 267.198 79.904-38.354c11.9-5.712 14-18.022 4.666-27.356z">
      </path>
      <path
        d="M615.384 135.384l-263.384 21.95c-17.5 2.166-32.080 5.898-37.090 28.752-0.006 0.024-0.012 0.042-0.018 0.066-71.422 343.070-314.892 677.848-314.892 677.848l57.374 57.374 271.986-271.99c-5.996-12.53-9.36-26.564-9.36-41.384 0-53.020 42.98-96 96-96s96 42.98 96 96-42.98 96-96 96c-14.82 0-28.852-3.364-41.384-9.36l-271.988 271.986 57.372 57.374c0 0 334.778-243.47 677.848-314.892 0.024-0.006 0.042-0.012 0.066-0.018 22.854-5.010 26.586-19.59 28.752-37.090l21.95-263.384-273.232-273.232z">
      </path>
    </g>
  </symbol>

  <symbol id="icon-remove" viewBox="0 0 1024 1024">
      <path d="M576 256l-128-128h-448v832h1024v-704h-448zM704 704h-384v-128h384v128z"></path>
  </symbol>
</svg>
